<?xml version="1.0" encoding="UTF-8"?>
<!DOCTYPE svg PUBLIC "-//W3C//DTD SVG 1.1//EN"
    "http://www.w3.org/Graphics/SVG/1.1/DTD/svg11.dtd" >
<svg contentScriptType="text/ecmascript" width="1000.0"
     xmlns:xlink="http://www.w3.org/1999/xlink" zoomAndPan="magnify"
     contentStyleType="text/css"
     viewBox="-299.000000 -176.000000 665.000000 557.000000" height="600.0"
     preserveAspectRatio="xMidYMid meet" xmlns="http://www.w3.org/2000/svg"
     version="1.1">
    <g id="edges">
        <path fill="none" stroke-width="0.1"
              d="M 115.276833,72.828934 C 154.401825,13.863819 301.536987,-15.896358 360.502106,23.228640"
              class="id_Alicia id_Apprentice" stroke-opacity="1.0"
              stroke="#2c7bb6"/>
        <path fill="none" stroke-width="1.05"
              d="M 115.276833,72.828934 C 99.189331,54.777161 102.135742,3.568261 120.187508,-12.519241"
              class="id_Alicia id_Bellamy" stroke-opacity="1.0" stroke="#ffffbf"/>
        <path fill="none" stroke-width="0.41666666"
              d="M 115.276833,72.828934 C 72.243111,68.351334 14.408936,-2.915642 18.886538,-45.949364"
              class="id_Alicia id_Careless" stroke-opacity="1.0"
              stroke="#72a7b9"/>
        <path fill="none" stroke-width="0.41666666"
              d="M 115.276833,72.828934 C 50.043282,57.894379 -25.405209,-62.357765 -10.470651,-127.591316"
              class="id_Alicia id_Closet" stroke-opacity="1.0" stroke="#72a7b9"/>
        <path fill="none" stroke-width="0.41666666"
              d="M 115.276833,72.828934 C 78.126740,39.539318 72.336029,-66.120239 105.625641,-103.270325"
              class="id_Alicia id_Crostill" stroke-opacity="1.0"
              stroke="#72a7b9"/>
        <path fill="none" stroke-width="0.1"
              d="M 115.276833,72.828934 C 24.982723,145.305954 -219.173981,118.580338 -291.651001,28.286226"
              class="id_Alicia id_Fitzgerrard" stroke-opacity="1.0"
              stroke="#2c7bb6"/>
        <path fill="none" stroke-width="0.73333335"
              d="M 115.276833,72.828934 C 57.109123,73.548813 -31.222265,-12.622938 -31.942144,-70.790649"
              class="id_Alicia id_Lady" stroke-opacity="1.0" stroke="#b8d3bc"/>
        <path fill="none" stroke-width="0.41666666"
              d="M 115.276833,72.828934 C 128.168304,106.733818 96.648178,176.928375 62.743290,189.819839"
              class="id_Alicia id_Lovely" stroke-opacity="1.0" stroke="#72a7b9"/>
        <path fill="none" stroke-width="0.41666666"
              d="M 115.276833,72.828934 C 106.203583,142.835602 -12.416279,234.235748 -82.422943,225.162491"
              class="id_Alicia id_Old_Bellamy" stroke-opacity="1.0"
              stroke="#72a7b9"/>
        <path fill="none" stroke-width="0.1"
              d="M 115.276833,72.828934 C 172.001022,137.266785 160.430527,319.009857 95.992683,375.734039"
              class="id_Alicia id_Page" stroke-opacity="1.0" stroke="#2c7bb6"/>
        <path fill="none" stroke-width="0.41666666"
              d="M 115.276833,72.828934 C 47.752434,94.927139 -86.681465,26.787859 -108.779678,-40.736542"
              class="id_Alicia id_Phoebe" stroke-opacity="1.0" stroke="#72a7b9"/>
        <path fill="none" stroke-width="1.3666667"
              d="M 115.276833,72.828934 C 97.823311,89.056335 47.301903,87.217148 31.074499,69.763626"
              class="id_Alicia id_Saleware" stroke-opacity="1.0"
              stroke="#f1b288"/>
        <path fill="none" stroke-width="0.73333335"
              d="M 115.276833,72.828934 C 77.663422,81.335876 8.482891,37.676170 -0.024049,0.062757"
              class="id_Alicia id_Saveall" stroke-opacity="1.0" stroke="#b8d3bc"/>
        <path fill="none" stroke-width="0.1"
              d="M 115.276833,72.828934 C 23.981674,68.599655 -106.617142,-74.687027 -102.387856,-165.982193"
              class="id_Alicia id_Thrivewell" stroke-opacity="1.0"
              stroke="#2c7bb6"/>
        <path fill="none" stroke-width="0.41666666"
              d="M 115.276833,72.828934 C 69.834450,100.089096 -39.219368,72.815773 -66.479530,27.373394"
              class="id_Alicia id_Wat" stroke-opacity="1.0" stroke="#72a7b9"/>
        <path fill="none" stroke-width="0.1"
              d="M 360.502106,23.228640 C 305.289612,64.141983 161.100845,42.693260 120.187508,-12.519241"
              class="id_Apprentice id_Bellamy" stroke-opacity="1.0"
              stroke="#2c7bb6"/>
        <path fill="none" stroke-width="0.1"
              d="M 360.502106,23.228640 C 263.209381,82.913635 27.742849,26.502060 -31.942144,-70.790649"
              class="id_Apprentice id_Lady" stroke-opacity="1.0"
              stroke="#2c7bb6"/>
        <path fill="none" stroke-width="0.1"
              d="M 360.502106,23.228640 C 303.923584,98.421165 106.267029,126.342155 31.074499,69.763626"
              class="id_Apprentice id_Saleware" stroke-opacity="1.0"
              stroke="#2c7bb6"/>
        <path fill="none" stroke-width="0.73333335"
              d="M 120.187508,-12.519241 C 93.241287,1.054930 32.460709,-19.003145 18.886538,-45.949364"
              class="id_Bellamy id_Careless" stroke-opacity="1.0"
              stroke="#b8d3bc"/>
        <path fill="none" stroke-width="0.41666666"
              d="M 120.187508,-12.519241 C 71.041466,-9.402021 -7.353433,-78.445274 -10.470651,-127.591316"
              class="id_Bellamy id_Closet" stroke-opacity="1.0" stroke="#72a7b9"/>
        <path fill="none" stroke-width="0.73333335"
              d="M 120.187508,-12.519241 C 99.124908,-27.757088 90.387802,-82.207726 105.625641,-103.270325"
              class="id_Bellamy id_Crostill" stroke-opacity="1.0"
              stroke="#b8d3bc"/>
        <path fill="none" stroke-width="0.1"
              d="M 120.187508,-12.519241 C 45.980904,78.009552 -201.122208,102.492828 -291.651001,28.286226"
              class="id_Bellamy id_Fitzgerrard" stroke-opacity="1.0"
              stroke="#2c7bb6"/>
        <path fill="none" stroke-width="0.73333335"
              d="M 120.187508,-12.519241 C 78.107292,6.252409 -13.170495,-28.710436 -31.942144,-70.790649"
              class="id_Bellamy id_Lady" stroke-opacity="1.0" stroke="#b8d3bc"/>
        <path fill="none" stroke-width="0.41666666"
              d="M 120.187508,-12.519241 C 149.166473,39.437416 114.699951,160.840866 62.743290,189.819839"
              class="id_Bellamy id_Lovely" stroke-opacity="1.0" stroke="#72a7b9"/>
        <path fill="none" stroke-width="0.1"
              d="M 120.187508,-12.519241 C 127.201767,75.539192 5.635490,218.148224 -82.422943,225.162491"
              class="id_Bellamy id_Old_Bellamy" stroke-opacity="1.0"
              stroke="#2c7bb6"/>
        <path fill="none" stroke-width="0.41666666"
              d="M 120.187508,-12.519241 C 68.750610,27.630737 -68.629700,10.700356 -108.779678,-40.736542"
              class="id_Bellamy id_Phoebe" stroke-opacity="1.0" stroke="#72a7b9"/>
        <path fill="none" stroke-width="1.05"
              d="M 120.187508,-12.519241 C 118.821480,21.759933 65.353676,71.129654 31.074499,69.763626"
              class="id_Bellamy id_Saleware" stroke-opacity="1.0"
              stroke="#ffffbf"/>
        <path fill="none" stroke-width="0.73333335"
              d="M 120.187508,-12.519241 C 98.661598,14.039471 26.534662,21.588671 -0.024049,0.062757"
              class="id_Bellamy id_Saveall" stroke-opacity="1.0"
              stroke="#b8d3bc"/>
        <path fill="none" stroke-width="0.1"
              d="M 120.187508,-12.519241 C 44.979843,1.303246 -88.565369,-90.774536 -102.387856,-165.982193"
              class="id_Bellamy id_Thrivewell" stroke-opacity="1.0"
              stroke="#2c7bb6"/>
        <path fill="none" stroke-width="0.41666666"
              d="M 120.187508,-12.519241 C 90.832619,32.792694 -21.167595,56.728275 -66.479530,27.373394"
              class="id_Bellamy id_Wat" stroke-opacity="1.0" stroke="#72a7b9"/>
        <path fill="none" stroke-width="1.05"
              d="M 18.886538,-45.949364 C -3.313293,-56.406319 -20.927605,-105.391487 -10.470651,-127.591316"
              class="id_Careless id_Closet" stroke-opacity="1.0"
              stroke="#ffffbf"/>
        <path fill="none" stroke-width="0.73333335"
              d="M 18.886538,-45.949364 C 24.770168,-74.761375 76.813622,-109.153946 105.625641,-103.270325"
              class="id_Careless id_Crostill" stroke-opacity="1.0"
              stroke="#b8d3bc"/>
        <path fill="none" stroke-width="0.1"
              d="M 18.886538,-45.949364 C -28.373852,31.005260 -214.696365,75.546616 -291.651001,28.286226"
              class="id_Careless id_Fitzgerrard" stroke-opacity="1.0"
              stroke="#2c7bb6"/>
        <path fill="none" stroke-width="1.3666667"
              d="M 18.886538,-45.949364 C 3.752543,-40.751884 -26.744665,-55.656658 -31.942144,-70.790649"
              class="id_Careless id_Lady" stroke-opacity="1.0" stroke="#f1b288"/>
        <path fill="none" stroke-width="0.41666666"
              d="M 18.886538,-45.949364 C 74.811722,-7.566875 101.125778,133.894653 62.743290,189.819839"
              class="id_Careless id_Lovely" stroke-opacity="1.0"
              stroke="#72a7b9"/>
        <path fill="none" stroke-width="0.1"
              d="M 18.886538,-45.949364 C 52.847012,28.534903 -7.938679,191.202026 -82.422943,225.162491"
              class="id_Careless id_Old_Bellamy" stroke-opacity="1.0"
              stroke="#2c7bb6"/>
        <path fill="none" stroke-width="0.73333335"
              d="M 18.886538,-45.949364 C -5.604141,-19.373556 -82.203873,-16.245863 -108.779678,-40.736542"
              class="id_Careless id_Phoebe" stroke-opacity="1.0"
              stroke="#b8d3bc"/>
        <path fill="none" stroke-width="0.73333335"
              d="M 18.886538,-45.949364 C 44.466728,-25.244358 51.779503,44.183434 31.074499,69.763626"
              class="id_Careless id_Saleware" stroke-opacity="1.0"
              stroke="#b8d3bc"/>
        <path fill="none" stroke-width="2.0"
              d="M 18.886538,-45.949364 C 24.306843,-32.964825 12.960493,-5.357549 -0.024049,0.062757"
              class="id_Careless id_Saveall" stroke-opacity="1.0"
              stroke="#d7191c"/>
        <path fill="none" stroke-width="0.73333335"
              d="M 18.886538,-45.949364 C -29.374907,-45.701054 -102.139542,-117.720749 -102.387856,-165.982193"
              class="id_Careless id_Thrivewell" stroke-opacity="1.0"
              stroke="#b8d3bc"/>
        <path fill="none" stroke-width="1.05"
              d="M 18.886538,-45.949364 C 16.477875,-14.211599 -34.741768,29.782055 -66.479530,27.373394"
              class="id_Careless id_Wat" stroke-opacity="1.0" stroke="#ffffbf"/>
        <path fill="none" stroke-width="0.41666666"
              d="M -10.470651,-127.591316 C 17.612804,-145.946381 87.270584,-131.353775 105.625641,-103.270325"
              class="id_Closet id_Crostill" stroke-opacity="1.0"
              stroke="#72a7b9"/>
        <path fill="none" stroke-width="0.1"
              d="M -10.470651,-127.591316 C -35.531212,-40.179726 -204.239410,53.346790 -291.651001,28.286226"
              class="id_Closet id_Fitzgerrard" stroke-opacity="1.0"
              stroke="#2c7bb6"/>
        <path fill="none" stroke-width="1.3666667"
              d="M -10.470651,-127.591316 C -3.404817,-111.936890 -16.287712,-77.856483 -31.942144,-70.790649"
              class="id_Closet id_Lady" stroke-opacity="1.0" stroke="#f1b288"/>
        <path fill="none" stroke-width="0.1"
              d="M -10.470651,-127.591316 C 67.654381,-78.751869 111.582741,111.694809 62.743290,189.819839"
              class="id_Closet id_Lovely" stroke-opacity="1.0" stroke="#2c7bb6"/>
        <path fill="none" stroke-width="0.1"
              d="M -10.470651,-127.591316 C 45.689651,-42.650101 2.518272,169.002182 -82.422943,225.162491"
              class="id_Closet id_Old_Bellamy" stroke-opacity="1.0"
              stroke="#2c7bb6"/>
        <path fill="none" stroke-width="0.73333335"
              d="M -10.470651,-127.591316 C -12.761503,-90.558556 -71.746918,-38.445694 -108.779678,-40.736542"
              class="id_Closet id_Phoebe" stroke-opacity="1.0" stroke="#b8d3bc"/>
        <path fill="none" stroke-width="0.41666666"
              d="M -10.470651,-127.591316 C 37.309368,-96.429359 62.236458,21.983606 31.074499,69.763626"
              class="id_Closet id_Saleware" stroke-opacity="1.0"
              stroke="#72a7b9"/>
        <path fill="none" stroke-width="1.05"
              d="M -10.470651,-127.591316 C 17.149485,-104.149818 23.417446,-27.557379 -0.024049,0.062757"
              class="id_Closet id_Saveall" stroke-opacity="1.0" stroke="#ffffbf"/>
        <path fill="none" stroke-width="0.73333335"
              d="M -10.470651,-127.591316 C -36.532269,-116.886047 -91.682587,-139.920578 -102.387856,-165.982193"
              class="id_Closet id_Thrivewell" stroke-opacity="1.0"
              stroke="#b8d3bc"/>
        <path fill="none" stroke-width="0.73333335"
              d="M -10.470651,-127.591316 C 9.320515,-85.396599 -24.284815,7.582229 -66.479530,27.373394"
              class="id_Closet id_Wat" stroke-opacity="1.0" stroke="#b8d3bc"/>
        <path fill="none" stroke-width="0.1"
              d="M 105.625641,-103.270325 C 52.481613,2.496323 -185.884354,81.430252 -291.651001,28.286226"
              class="id_Crostill id_Fitzgerrard" stroke-opacity="1.0"
              stroke="#2c7bb6"/>
        <path fill="none" stroke-width="0.41666666"
              d="M 105.625641,-103.270325 C 84.608017,-69.260834 2.067348,-49.773026 -31.942144,-70.790649"
              class="id_Crostill id_Lady" stroke-opacity="1.0" stroke="#72a7b9"/>
        <path fill="none" stroke-width="0.41666666"
              d="M 105.625641,-103.270325 C 155.667206,-36.075829 129.937790,139.778290 62.743290,189.819839"
              class="id_Crostill id_Lovely" stroke-opacity="1.0"
              stroke="#72a7b9"/>
        <path fill="none" stroke-width="0.1"
              d="M 105.625641,-103.270325 C 133.702484,0.025955 20.873337,197.085632 -82.422943,225.162491"
              class="id_Crostill id_Old_Bellamy" stroke-opacity="1.0"
              stroke="#2c7bb6"/>
        <path fill="none" stroke-width="0.41666666"
              d="M 105.625641,-103.270325 C 75.251335,-47.882500 -53.391853,-10.362236 -108.779678,-40.736542"
              class="id_Crostill id_Phoebe" stroke-opacity="1.0"
              stroke="#72a7b9"/>
        <path fill="none" stroke-width="0.41666666"
              d="M 105.625641,-103.270325 C 125.322205,-53.753307 80.591515,50.067066 31.074499,69.763626"
              class="id_Crostill id_Saleware" stroke-opacity="1.0"
              stroke="#72a7b9"/>
        <path fill="none" stroke-width="0.73333335"
              d="M 105.625641,-103.270325 C 105.162323,-61.473770 41.772507,0.526077 -0.024049,0.062757"
              class="id_Crostill id_Saveall" stroke-opacity="1.0"
              stroke="#b8d3bc"/>
        <path fill="none" stroke-width="0.1"
              d="M 105.625641,-103.270325 C 51.480576,-74.210007 -73.327530,-111.837128 -102.387856,-165.982193"
              class="id_Crostill id_Thrivewell" stroke-opacity="1.0"
              stroke="#2c7bb6"/>
        <path fill="none" stroke-width="0.41666666"
              d="M 105.625641,-103.270325 C 97.333351,-42.720547 -5.929754,35.665680 -66.479530,27.373394"
              class="id_Crostill id_Wat" stroke-opacity="1.0" stroke="#72a7b9"/>
        <path fill="none" stroke-width="0.1"
              d="M -291.651001,28.286226 C -259.524597,-43.470924 -103.699295,-102.917046 -31.942144,-70.790649"
              class="id_Fitzgerrard id_Lady" stroke-opacity="1.0"
              stroke="#2c7bb6"/>
        <path fill="none" stroke-width="0.1"
              d="M -291.651001,28.286226 C -188.465424,-10.285912 24.171154,86.634262 62.743290,189.819839"
              class="id_Fitzgerrard id_Lovely" stroke-opacity="1.0"
              stroke="#2c7bb6"/>
        <path fill="none" stroke-width="0.1"
              d="M -291.651001,28.286226 C -210.430130,25.815872 -84.893295,143.941620 -82.422943,225.162491"
              class="id_Fitzgerrard id_Old_Bellamy" stroke-opacity="1.0"
              stroke="#2c7bb6"/>
        <path fill="none" stroke-width="0.1"
              d="M -291.651001,28.286226 C -268.881287,-22.092590 -159.158493,-63.506252 -108.779678,-40.736542"
              class="id_Fitzgerrard id_Phoebe" stroke-opacity="1.0"
              stroke="#2c7bb6"/>
        <path fill="none" stroke-width="0.1"
              d="M -291.651001,28.286226 C -218.810410,-27.963390 -25.175116,-3.076950 31.074499,69.763626"
              class="id_Fitzgerrard id_Saleware" stroke-opacity="1.0"
              stroke="#2c7bb6"/>
        <path fill="none" stroke-width="0.1"
              d="M -291.651001,28.286226 C -238.970306,-35.683857 -63.994133,-52.617939 -0.024049,0.062757"
              class="id_Fitzgerrard id_Saveall" stroke-opacity="1.0"
              stroke="#2c7bb6"/>
        <path fill="none" stroke-width="0.1"
              d="M -291.651001,28.286226 C -292.652039,-48.420090 -179.094162,-164.981140 -102.387856,-165.982193"
              class="id_Fitzgerrard id_Thrivewell" stroke-opacity="1.0"
              stroke="#2c7bb6"/>
        <path fill="none" stroke-width="0.1"
              d="M -291.651001,28.286226 C -246.799271,-16.930634 -111.696388,-17.478334 -66.479530,27.373394"
              class="id_Fitzgerrard id_Wat" stroke-opacity="1.0"
              stroke="#2c7bb6"/>
        <path fill="none" stroke-width="0.1"
              d="M -31.942144,-70.790649 C 39.117039,-37.605637 95.928299,118.760651 62.743290,189.819839"
              class="id_Lady id_Lovely" stroke-opacity="1.0" stroke="#2c7bb6"/>
        <path fill="none" stroke-width="0.1"
              d="M -31.942144,-70.790649 C 17.152321,-1.503865 -13.136158,176.068024 -82.422943,225.162491"
              class="id_Lady id_Old_Bellamy" stroke-opacity="1.0"
              stroke="#2c7bb6"/>
        <path fill="none" stroke-width="0.73333335"
              d="M -31.942144,-70.790649 C -41.298828,-49.412323 -87.401352,-31.379858 -108.779678,-40.736542"
              class="id_Lady id_Phoebe" stroke-opacity="1.0" stroke="#b8d3bc"/>
        <path fill="none" stroke-width="0.73333335"
              d="M -31.942144,-70.790649 C 8.772039,-55.283123 46.582024,29.049442 31.074499,69.763626"
              class="id_Lady id_Saleware" stroke-opacity="1.0" stroke="#b8d3bc"/>
        <path fill="none" stroke-width="1.3666667"
              d="M -31.942144,-70.790649 C -11.387843,-63.003586 7.763014,-20.491543 -0.024049,0.062757"
              class="id_Lady id_Saveall" stroke-opacity="1.0" stroke="#f1b288"/>
        <path fill="none" stroke-width="1.05"
              d="M -31.942144,-70.790649 C -65.069595,-75.739815 -107.337021,-132.854736 -102.387856,-165.982193"
              class="id_Lady id_Thrivewell" stroke-opacity="1.0"
              stroke="#ffffbf"/>
        <path fill="none" stroke-width="0.73333335"
              d="M -31.942144,-70.790649 C -19.216812,-44.250366 -39.939243,14.648062 -66.479530,27.373394"
              class="id_Lady id_Wat" stroke-opacity="1.0" stroke="#b8d3bc"/>
        <path fill="none" stroke-width="0.41666666"
              d="M 62.743290,189.819839 C 40.778576,225.921616 -46.321167,247.127213 -82.422943,225.162491"
              class="id_Lovely id_Old_Bellamy" stroke-opacity="1.0"
              stroke="#72a7b9"/>
        <path fill="none" stroke-width="0.1"
              d="M 62.743290,189.819839 C 106.576004,220.352814 126.525650,331.901337 95.992683,375.734039"
              class="id_Lovely id_Page" stroke-opacity="1.0" stroke="#2c7bb6"/>
        <path fill="none" stroke-width="0.1"
              d="M 62.743290,189.819839 C -17.672577,178.013153 -120.586357,39.679325 -108.779678,-40.736542"
              class="id_Lovely id_Phoebe" stroke-opacity="1.0" stroke="#2c7bb6"/>
        <path fill="none" stroke-width="0.41666666"
              d="M 62.743290,189.819839 C 32.398289,172.142349 13.397015,100.108627 31.074499,69.763626"
              class="id_Lovely id_Saleware" stroke-opacity="1.0"
              stroke="#72a7b9"/>
        <path fill="none" stroke-width="0.73333335"
              d="M 62.743290,189.819839 C 12.238407,164.421890 -25.421997,50.567638 -0.024049,0.062757"
              class="id_Lovely id_Saveall" stroke-opacity="1.0" stroke="#b8d3bc"/>
        <path fill="none" stroke-width="0.1"
              d="M 62.743290,189.819839 C -41.443348,151.685669 -140.522034,-61.795555 -102.387856,-165.982193"
              class="id_Lovely id_Thrivewell" stroke-opacity="1.0"
              stroke="#2c7bb6"/>
        <path fill="none" stroke-width="0.1"
              d="M 62.743290,189.819839 C 4.409439,183.175110 -73.124252,85.707245 -66.479530,27.373394"
              class="id_Lovely id_Wat" stroke-opacity="1.0" stroke="#2c7bb6"/>
        <path fill="none" stroke-width="0.1"
              d="M -82.422943,225.162491 C -16.625513,219.593674 90.423874,309.936584 95.992683,375.734039"
              class="id_Old_Bellamy id_Page" stroke-opacity="1.0"
              stroke="#2c7bb6"/>
        <path fill="none" stroke-width="0.1"
              d="M -82.422943,225.162491 C -140.874100,177.254028 -156.688141,17.714615 -108.779678,-40.736542"
              class="id_Old_Bellamy id_Phoebe" stroke-opacity="1.0"
              stroke="#2c7bb6"/>
        <path fill="none" stroke-width="0.41666666"
              d="M -82.422943,225.162491 C -90.803223,171.383224 -22.704763,78.143906 31.074499,69.763626"
              class="id_Old_Bellamy id_Saleware" stroke-opacity="1.0"
              stroke="#72a7b9"/>
        <path fill="none" stroke-width="0.41666666"
              d="M -82.422943,225.162491 C -110.963104,163.662766 -61.523777,28.602922 -0.024049,0.062757"
              class="id_Old_Bellamy id_Saveall" stroke-opacity="1.0"
              stroke="#72a7b9"/>
        <path fill="none" stroke-width="0.1"
              d="M -82.422943,225.162491 C -164.644867,150.926544 -176.623810,-83.760277 -102.387856,-165.982193"
              class="id_Old_Bellamy id_Thrivewell" stroke-opacity="1.0"
              stroke="#2c7bb6"/>
        <path fill="none" stroke-width="0.1"
              d="M -82.422943,225.162491 C -118.792084,182.415985 -109.226028,63.742531 -66.479530,27.373394"
              class="id_Old_Bellamy id_Wat" stroke-opacity="1.0"
              stroke="#2c7bb6"/>
        <path fill="none" stroke-width="0.1"
              d="M 95.992683,375.734039 C 21.814968,327.523590 -17.135944,143.941345 31.074499,69.763626"
              class="id_Page id_Saleware" stroke-opacity="1.0" stroke="#2c7bb6"/>
        <path fill="none" stroke-width="0.1"
              d="M 95.992683,375.734039 C 1.655075,319.803131 -55.954964,94.400368 -0.024049,0.062757"
              class="id_Page id_Saveall" stroke-opacity="1.0" stroke="#2c7bb6"/>
        <path fill="none" stroke-width="0.73333335"
              d="M -108.779678,-40.736542 C -58.708801,-46.607342 25.203699,19.692753 31.074499,69.763626"
              class="id_Phoebe id_Saleware" stroke-opacity="1.0"
              stroke="#b8d3bc"/>
        <path fill="none" stroke-width="0.73333335"
              d="M -108.779678,-40.736542 C -78.868690,-54.327812 -13.615317,-29.848228 -0.024049,0.062757"
              class="id_Phoebe id_Saveall" stroke-opacity="1.0" stroke="#b8d3bc"/>
        <path fill="none" stroke-width="0.41666666"
              d="M -108.779678,-40.736542 C -132.550446,-67.064041 -128.715347,-142.211426 -102.387856,-165.982193"
              class="id_Phoebe id_Thrivewell" stroke-opacity="1.0"
              stroke="#72a7b9"/>
        <path fill="none" stroke-width="0.73333335"
              d="M -108.779678,-40.736542 C -86.697662,-35.574585 -61.317574,5.291377 -66.479530,27.373394"
              class="id_Phoebe id_Wat" stroke-opacity="1.0" stroke="#b8d3bc"/>
        <path fill="none" stroke-width="1.05"
              d="M 31.074499,69.763626 C 10.914617,62.043163 -7.744512,20.222641 -0.024049,0.062757"
              class="id_Saleware id_Saveall" stroke-opacity="1.0"
              stroke="#ffffbf"/>
        <path fill="none" stroke-width="0.1"
              d="M 31.074499,69.763626 C -42.767139,49.306931 -122.844543,-92.140549 -102.387856,-165.982193"
              class="id_Saleware id_Thrivewell" stroke-opacity="1.0"
              stroke="#2c7bb6"/>
        <path fill="none" stroke-width="0.73333335"
              d="M 31.074499,69.763626 C 3.085646,80.796387 -55.446770,55.362247 -66.479530,27.373394"
              class="id_Saleware id_Wat" stroke-opacity="1.0" stroke="#b8d3bc"/>
        <path fill="none" stroke-width="0.73333335"
              d="M -0.024049,0.062757 C -53.705803,-12.673473 -115.124084,-112.300430 -102.387856,-165.982193"
              class="id_Saveall id_Thrivewell" stroke-opacity="1.0"
              stroke="#b8d3bc"/>
        <path fill="none" stroke-width="1.05"
              d="M -0.024049,0.062757 C -7.853018,18.815981 -47.726307,35.202362 -66.479530,27.373394"
              class="id_Saveall id_Wat" stroke-opacity="1.0" stroke="#ffffbf"/>
        <path fill="none" stroke-width="0.1"
              d="M -102.387856,-165.982193 C -56.535072,-134.492737 -34.990074,-18.479391 -66.479530,27.373394"
              class="id_Thrivewell id_Wat" stroke-opacity="1.0" stroke="#2c7bb6"/>
    </g>
    <g id="nodes">
        <circle fill-opacity="1.0" fill="#28b36a" r="11.904762" cx="115.27683"
                class="id_Alicia" cy="72.82893" stroke="#000000"
                stroke-opacity="1.0" stroke-width="1.0"/>
        <circle fill-opacity="1.0" fill="#9a96e5" r="5.0" cx="360.5021"
                class="id_Apprentice" cy="23.22864" stroke="#000000"
                stroke-opacity="1.0" stroke-width="1.0"/>
        <circle fill-opacity="1.0" fill="#28b36a" r="11.666667" cx="120.18751"
                class="id_Bellamy" cy="-12.519241" stroke="#000000"
                stroke-opacity="1.0" stroke-width="1.0"/>
        <circle fill-opacity="1.0" fill="#f97743" r="13.809524" cx="18.886538"
                class="id_Careless" cy="-45.949364" stroke="#000000"
                stroke-opacity="1.0" stroke-width="1.0"/>
        <circle fill-opacity="1.0" fill="#9a96e5" r="11.904762" cx="-10.470651"
                class="id_Closet" cy="-127.59132" stroke="#000000"
                stroke-opacity="1.0" stroke-width="1.0"/>
        <circle fill-opacity="1.0" fill="#28b36a" r="10.238095" cx="105.62564"
                class="id_Crostill" cy="-103.270325" stroke="#000000"
                stroke-opacity="1.0" stroke-width="1.0"/>
        <circle fill-opacity="1.0" fill="#28b36a" r="7.142857" cx="-291.651"
                class="id_Fitzgerrard" cy="28.286226" stroke="#000000"
                stroke-opacity="1.0" stroke-width="1.0"/>
        <circle fill-opacity="1.0" fill="#f97743" r="13.571428" cx="-31.942144"
                class="id_Lady" cy="-70.79065" stroke="#000000"
                stroke-opacity="1.0" stroke-width="1.0"/>
        <circle fill-opacity="1.0" fill="#f97743" r="9.285714" cx="62.74329"
                class="id_Lovely" cy="189.81984" stroke="#000000"
                stroke-opacity="1.0" stroke-width="1.0"/>
        <circle fill-opacity="1.0" fill="#28b36a" r="8.333334" cx="-82.42294"
                class="id_Old_Bellamy" cy="225.16249" stroke="#000000"
                stroke-opacity="1.0" stroke-width="1.0"/>
        <circle fill-opacity="1.0" fill="#9a96e5" r="5.2380953" cx="95.99268"
                class="id_Page" cy="375.73404" stroke="#000000"
                stroke-opacity="1.0" stroke-width="1.0"/>
        <circle fill-opacity="1.0" fill="#28b36a" r="10.952381" cx="-108.77968"
                class="id_Phoebe" cy="-40.73654" stroke="#000000"
                stroke-opacity="1.0" stroke-width="1.0"/>
        <circle fill-opacity="1.0" fill="#28b36a" r="12.857142" cx="31.0745"
                class="id_Saleware" cy="69.763626" stroke="#000000"
                stroke-opacity="1.0" stroke-width="1.0"/>
        <circle fill-opacity="1.0" fill="#28b36a" r="15.0" cx="-0.024048906"
                class="id_Saveall" cy="0.06275726" stroke="#000000"
                stroke-opacity="1.0" stroke-width="1.0"/>
        <circle fill-opacity="1.0" fill="#f97743" r="9.523809" cx="-102.387856"
                class="id_Thrivewell" cy="-165.9822" stroke="#000000"
                stroke-opacity="1.0" stroke-width="1.0"/>
        <circle fill-opacity="1.0" fill="#9a96e5" r="11.190476" cx="-66.47953"
                class="id_Wat" cy="27.373394" stroke="#000000"
                stroke-opacity="1.0" stroke-width="1.0"/>
    </g>
    <g id="node-labels">
        <text font-size="19" x="115.27683" y="76.50972" fill="#000000"
              style="text-anchor: middle; dominant-baseline: central;"
              font-family="Verdana" class="id_Alicia">
            Alicia
        </text>
        <text font-size="8" x="360.5021" y="25.09485" fill="#000000"
              style="text-anchor: middle; dominant-baseline: central;"
              font-family="Verdana" class="id_Apprentice">
            Apprentice
        </text>
        <text font-size="19" x="120.18751" y="-7.954788" fill="#000000"
              style="text-anchor: middle; dominant-baseline: central;"
              font-family="Verdana" class="id_Bellamy">
            Bellamy
        </text>
        <text font-size="22" x="18.886538" y="-41.6874" fill="#000000"
              style="text-anchor: middle; dominant-baseline: central;"
              font-family="Verdana" class="id_Careless">
            Careless
        </text>
        <text font-size="19" x="-10.470651" y="-123.91053" fill="#000000"
              style="text-anchor: middle; dominant-baseline: central;"
              font-family="Verdana" class="id_Closet">
            Closet
        </text>
        <text font-size="16" x="105.62564" y="-100.170715" fill="#000000"
              style="text-anchor: middle; dominant-baseline: central;"
              font-family="Verdana" class="id_Crostill">
            Crostill
        </text>
        <text font-size="11" x="-291.651" y="30.943575" fill="#000000"
              style="text-anchor: middle; dominant-baseline: central;"
              font-family="Verdana" class="id_Fitzgerrard">
            Fitzgerrard
        </text>
        <text font-size="22" x="-31.942144" y="-65.50549" fill="#000000"
              style="text-anchor: middle; dominant-baseline: central;"
              font-family="Verdana" class="id_Lady">
            Lady
        </text>
        <text font-size="15" x="62.74329" y="193.42336" fill="#000000"
              style="text-anchor: middle; dominant-baseline: central;"
              font-family="Verdana" class="id_Lovely">
            Lovely
        </text>
        <text font-size="13" x="-82.42294" y="228.28554" fill="#000000"
              style="text-anchor: middle; dominant-baseline: central;"
              font-family="Verdana" class="id_Old_Bellamy">
            Old_Bellamy
        </text>
        <text font-size="8" x="95.99268" y="377.60123" fill="#000000"
              style="text-anchor: middle; dominant-baseline: central;"
              font-family="Verdana" class="id_Page">
            Page
        </text>
        <text font-size="18" x="-108.77968" y="-37.24948" fill="#000000"
              style="text-anchor: middle; dominant-baseline: central;"
              font-family="Verdana" class="id_Phoebe">
            Phoebe
        </text>
        <text font-size="21" x="31.0745" y="73.83186" fill="#000000"
              style="text-anchor: middle; dominant-baseline: central;"
              font-family="Verdana" class="id_Saleware">
            Saleware
        </text>
        <text font-size="24" x="-0.024048906" y="4.7121716" fill="#000000"
              style="text-anchor: middle; dominant-baseline: central;"
              font-family="Verdana" class="id_Saveall">
            Saveall
        </text>
        <text font-size="15" x="-102.387856" y="-163.08546" fill="#000000"
              style="text-anchor: middle; dominant-baseline: central;"
              font-family="Verdana" class="id_Thrivewell">
            Thrivewell
        </text>
        <text font-size="18" x="-66.47953" y="30.713238" fill="#000000"
              style="text-anchor: middle; dominant-baseline: central;"
              font-family="Verdana" class="id_Wat">
            Wat
        </text>
    </g>
</svg>
