<?xml version="1.0" encoding="UTF-8"?>
<!DOCTYPE svg PUBLIC "-//W3C//DTD SVG 1.1//EN"
    "http://www.w3.org/Graphics/SVG/1.1/DTD/svg11.dtd" >
<svg contentScriptType="text/ecmascript" width="1183.0"
     xmlns:xlink="http://www.w3.org/1999/xlink" zoomAndPan="magnify"
     contentStyleType="text/css"
     viewBox="-661.000000 -477.000000 1183.000000 930.000000" height="930.0"
     preserveAspectRatio="xMidYMid meet" xmlns="http://www.w3.org/2000/svg"
     version="1.1">
    <g id="edges">
        <path fill="none" stroke-width="0.5"
              d="M 472.488495,-269.050873 C 492.740448,-264.409088 516.155640,-227.068542 511.513885,-206.816605"
              class="id_A_Drinker_within id_Boy" stroke-opacity="1.0"
              stroke="#2c7bb6"/>
        <path fill="none" stroke-width="0.5"
              d="M 472.488495,-269.050873 C 416.687592,-183.817062 205.135513,-139.667709 119.901695,-195.468628"
              class="id_A_Drinker_within id_Buzzard" stroke-opacity="1.0"
              stroke="#2c7bb6"/>
        <path fill="none" stroke-width="0.5"
              d="M 472.488495,-269.050873 C 463.620697,-147.782288 268.416138,20.818901 147.147522,11.951100"
              class="id_A_Drinker_within id_Edmund" stroke-opacity="1.0"
              stroke="#2c7bb6"/>
        <path fill="none" stroke-width="0.5"
              d="M 472.488495,-269.050873 C 451.672119,-127.545006 208.188721,53.489223 66.682854,32.672840"
              class="id_A_Drinker_within id_Nathaniel" stroke-opacity="1.0"
              stroke="#2c7bb6"/>
        <path fill="none" stroke-width="0.5"
              d="M 472.488495,-269.050873 C 444.414001,-148.300842 221.177216,-9.287590 100.427208,-37.362080"
              class="id_A_Drinker_within id_Vincent" stroke-opacity="1.0"
              stroke="#2c7bb6"/>
        <path fill="none" stroke-width="1.25"
              d="M 75.425087,117.352638 C 58.610123,165.379349 -38.652382,212.196945 -86.679085,195.381973"
              class="id_Arnold id_Arthur" stroke-opacity="1.0" stroke="#72a7b9"/>
        <path fill="none" stroke-width="1.25"
              d="M 75.425087,117.352638 C 21.756153,45.893066 48.442127,-141.799698 119.901695,-195.468628"
              class="id_Arnold id_Buzzard" stroke-opacity="1.0" stroke="#72a7b9"/>
        <path fill="none" stroke-width="2.75"
              d="M 75.425087,117.352638 C 68.689270,81.927841 111.722733,18.686920 147.147522,11.951100"
              class="id_Arnold id_Edmund" stroke-opacity="1.0" stroke="#ffffbf"/>
        <path fill="none" stroke-width="0.5"
              d="M 75.425087,117.352638 C 105.388115,24.177982 290.094635,-70.639435 383.269287,-40.676407"
              class="id_Arnold id_Inductor" stroke-opacity="1.0"
              stroke="#2c7bb6"/>
        <path fill="none" stroke-width="1.25"
              d="M 75.425087,117.352638 C 96.334114,193.010529 14.210815,337.860901 -61.447075,358.769928"
              class="id_Arnold id_Lucy" stroke-opacity="1.0" stroke="#72a7b9"/>
        <path fill="none" stroke-width="0.5"
              d="M 75.425087,117.352638 C -0.650648,210.975708 -255.198868,237.296722 -348.821930,161.220978"
              class="id_Arnold id_Meanwell" stroke-opacity="1.0"
              stroke="#2c7bb6"/>
        <path fill="none" stroke-width="0.5"
              d="M 75.425087,117.352638 C 3.477402,104.530502 -85.210930,-22.624237 -72.388794,-94.571922"
              class="id_Arnold id_Millicent" stroke-opacity="1.0"
              stroke="#2c7bb6"/>
        <path fill="none" stroke-width="3.5"
              d="M 75.425087,117.352638 C 56.740685,102.165123 51.495338,51.357250 66.682854,32.672840"
              class="id_Arnold id_Nathaniel" stroke-opacity="1.0"
              stroke="#f1b288"/>
        <path fill="none" stroke-width="2.75"
              d="M 75.425087,117.352638 C 36.836418,108.987312 -8.498604,38.556316 -0.133278,-0.032357"
              class="id_Arnold id_Phillis" stroke-opacity="1.0" stroke="#ffffbf"/>
        <path fill="none" stroke-width="1.25"
              d="M 75.425087,117.352638 C 21.338066,76.478355 1.518951,-65.963593 42.393230,-120.050613"
              class="id_Arnold id_Quicksands" stroke-opacity="1.0"
              stroke="#72a7b9"/>
        <path fill="none" stroke-width="0.5"
              d="M 75.425087,117.352638 C -31.362844,188.431244 -298.162628,134.867279 -369.241272,28.079348"
              class="id_Arnold id_Rashley" stroke-opacity="1.0" stroke="#2c7bb6"/>
        <path fill="none" stroke-width="1.25"
              d="M 75.425087,117.352638 C 1.990482,72.016190 -40.156754,-106.140388 5.179690,-179.574997"
              class="id_Arnold id_Testy" stroke-opacity="1.0" stroke="#72a7b9"/>
        <path fill="none" stroke-width="2.0"
              d="M 75.425087,117.352638 C 89.417786,165.633942 37.984871,259.044952 -10.296438,273.037628"
              class="id_Arnold id_Theophilus" stroke-opacity="1.0"
              stroke="#b8d3bc"/>
        <path fill="none" stroke-width="2.75"
              d="M 75.425087,117.352638 C 49.482567,81.409264 64.483833,-11.419559 100.427208,-37.362080"
              class="id_Arnold id_Vincent" stroke-opacity="1.0" stroke="#ffffbf"/>
        <path fill="none" stroke-width="0.5"
              d="M 75.425087,117.352638 C -66.074005,153.153900 -332.024536,-5.392868 -367.825806,-146.891968"
              class="id_Arnold id_Winloss" stroke-opacity="1.0" stroke="#2c7bb6"/>
        <path fill="none" stroke-width="2.0"
              d="M -86.679085,195.381973 C -85.291992,266.812561 -190.357239,376.039093 -261.787842,377.426178"
              class="id_Arthur id_Dionysia" stroke-opacity="1.0"
              stroke="#b8d3bc"/>
        <path fill="none" stroke-width="2.0"
              d="M -86.679085,195.381973 C -76.599945,111.930481 63.696026,1.871956 147.147522,11.951100"
              class="id_Arthur id_Edmund" stroke-opacity="1.0" stroke="#b8d3bc"/>
        <path fill="none" stroke-width="1.25"
              d="M -86.679085,195.381973 C -48.955093,223.013168 -33.815887,321.045959 -61.447075,358.769928"
              class="id_Arthur id_Lucy" stroke-opacity="1.0" stroke="#72a7b9"/>
        <path fill="none" stroke-width="0.5"
              d="M -86.679085,195.381973 C -145.939850,240.978348 -303.225586,220.481750 -348.821930,161.220978"
              class="id_Arthur id_Meanwell" stroke-opacity="1.0"
              stroke="#2c7bb6"/>
        <path fill="none" stroke-width="1.25"
              d="M -86.679085,195.381973 C -141.811813,134.533127 -133.237625,-39.439201 -72.388794,-94.571922"
              class="id_Arthur id_Millicent" stroke-opacity="1.0"
              stroke="#72a7b9"/>
        <path fill="none" stroke-width="2.0"
              d="M -86.679085,195.381973 C -88.548523,132.167755 3.468636,34.542278 66.682854,32.672840"
              class="id_Arthur id_Nathaniel" stroke-opacity="1.0"
              stroke="#b8d3bc"/>
        <path fill="none" stroke-width="0.5"
              d="M -86.679085,195.381973 C -57.436520,264.267151 -116.900467,411.458801 -185.785660,440.701355"
              class="id_Arthur id_Page" stroke-opacity="1.0" stroke="#2c7bb6"/>
        <path fill="none" stroke-width="1.25"
              d="M -86.679085,195.381973 C -108.452789,138.989944 -56.525307,21.741348 -0.133278,-0.032357"
              class="id_Arthur id_Phillis" stroke-opacity="1.0" stroke="#72a7b9"/>
        <path fill="none" stroke-width="0.5"
              d="M -86.679085,195.381973 C -123.951141,106.480995 -46.507751,-82.778557 42.393230,-120.050613"
              class="id_Arthur id_Quicksands" stroke-opacity="1.0"
              stroke="#2c7bb6"/>
        <path fill="none" stroke-width="1.25"
              d="M -86.679085,195.381973 C -128.325378,291.073303 -334.331787,372.140900 -430.023132,330.494598"
              class="id_Arthur id_Rafe" stroke-opacity="1.0" stroke="#72a7b9"/>
        <path fill="none" stroke-width="0.5"
              d="M -86.679085,195.381973 C -176.652054,218.433899 -346.189362,118.052322 -369.241272,28.079348"
              class="id_Arthur id_Rashley" stroke-opacity="1.0" stroke="#2c7bb6"/>
        <path fill="none" stroke-width="0.5"
              d="M -86.679085,195.381973 C -143.298721,102.018829 -88.183456,-122.955353 5.179690,-179.574997"
              class="id_Arthur id_Testy" stroke-opacity="1.0" stroke="#2c7bb6"/>
        <path fill="none" stroke-width="2.0"
              d="M -86.679085,195.381973 C -55.871426,195.636566 -10.041836,242.229965 -10.296438,273.037628"
              class="id_Arthur id_Theophilus" stroke-opacity="1.0"
              stroke="#b8d3bc"/>
        <path fill="none" stroke-width="2.0"
              d="M -86.679085,195.381973 C -95.806641,111.411896 16.457134,-28.234528 100.427208,-37.362080"
              class="id_Arthur id_Vincent" stroke-opacity="1.0" stroke="#b8d3bc"/>
        <path fill="none" stroke-width="0.5"
              d="M 511.513885,-206.816605 C 435.461060,-126.224579 200.493713,-119.415787 119.901695,-195.468628"
              class="id_Boy id_Buzzard" stroke-opacity="1.0" stroke="#2c7bb6"/>
        <path fill="none" stroke-width="0.5"
              d="M 511.513885,-206.816605 C 482.394165,-90.189796 263.774323,41.070827 147.147522,11.951100"
              class="id_Boy id_Edmund" stroke-opacity="1.0" stroke="#2c7bb6"/>
        <path fill="none" stroke-width="0.5"
              d="M 511.513885,-206.816605 C 470.445557,-69.952507 203.546951,73.741165 66.682854,32.672840"
              class="id_Boy id_Nathaniel" stroke-opacity="1.0" stroke="#2c7bb6"/>
        <path fill="none" stroke-width="0.5"
              d="M 511.513885,-206.816605 C 463.187469,-90.708359 216.535431,10.964340 100.427208,-37.362080"
              class="id_Boy id_Vincent" stroke-opacity="1.0" stroke="#2c7bb6"/>
        <path fill="none" stroke-width="2.0"
              d="M 119.901695,-195.468628 C 166.834808,-159.433853 183.182297,-34.982010 147.147522,11.951100"
              class="id_Buzzard id_Edmund" stroke-opacity="1.0" stroke="#b8d3bc"/>
        <path fill="none" stroke-width="0.5"
              d="M 119.901695,-195.468628 C 203.533661,-217.183716 361.554199,-124.308365 383.269287,-40.676407"
              class="id_Buzzard id_Inductor" stroke-opacity="1.0"
              stroke="#2c7bb6"/>
        <path fill="none" stroke-width="0.5"
              d="M 119.901695,-195.468628 C 75.156013,-249.891037 89.671097,-398.643158 144.093506,-443.388855"
              class="id_Buzzard id_Madge" stroke-opacity="1.0" stroke="#2c7bb6"/>
        <path fill="none" stroke-width="0.5"
              d="M 119.901695,-195.468628 C 97.494888,-30.385979 -183.739288,183.627777 -348.821930,161.220978"
              class="id_Buzzard id_Meanwell" stroke-opacity="1.0"
              stroke="#2c7bb6"/>
        <path fill="none" stroke-width="0.5"
              d="M 119.901695,-195.468628 C 40.807480,-224.894485 -33.695068,-387.674561 -4.269221,-466.768799"
              class="id_Buzzard id_Mercury" stroke-opacity="1.0"
              stroke="#2c7bb6"/>
        <path fill="none" stroke-width="2.75"
              d="M 119.901695,-195.468628 C 101.622940,-136.831192 -13.751352,-76.293167 -72.388794,-94.571922"
              class="id_Buzzard id_Millicent" stroke-opacity="1.0"
              stroke="#ffffbf"/>
        <path fill="none" stroke-width="2.0"
              d="M 119.901695,-195.468628 C 154.886215,-139.196564 122.954910,-2.311684 66.682854,32.672840"
              class="id_Buzzard id_Nathaniel" stroke-opacity="1.0"
              stroke="#b8d3bc"/>
        <path fill="none" stroke-width="2.0"
              d="M 119.901695,-195.468628 C 134.981949,-132.374390 62.960972,-15.112614 -0.133278,-0.032357"
              class="id_Buzzard id_Phillis" stroke-opacity="1.0"
              stroke="#b8d3bc"/>
        <path fill="none" stroke-width="3.5"
              d="M 119.901695,-195.468628 C 119.483604,-164.883331 72.978531,-119.632523 42.393230,-120.050613"
              class="id_Buzzard id_Quicksands" stroke-opacity="1.0"
              stroke="#f1b288"/>
        <path fill="none" stroke-width="0.5"
              d="M 119.901695,-195.468628 C 66.782700,-52.930443 -226.703094,81.198341 -369.241272,28.079348"
              class="id_Buzzard id_Rashley" stroke-opacity="1.0"
              stroke="#2c7bb6"/>
        <path fill="none" stroke-width="2.75"
              d="M 119.901695,-195.468628 C 100.136017,-169.345505 31.302818,-159.809326 5.179690,-179.574997"
              class="id_Buzzard id_Testy" stroke-opacity="1.0" stroke="#ffffbf"/>
        <path fill="none" stroke-width="2.0"
              d="M 119.901695,-195.468628 C 147.628113,-159.952423 135.943420,-65.088493 100.427208,-37.362080"
              class="id_Buzzard id_Vincent" stroke-opacity="1.0"
              stroke="#b8d3bc"/>
        <path fill="none" stroke-width="0.5"
              d="M 119.901695,-195.468628 C 32.071518,-88.207787 -260.564972,-59.061790 -367.825806,-146.891968"
              class="id_Buzzard id_Winloss" stroke-opacity="1.0"
              stroke="#2c7bb6"/>
        <path fill="none" stroke-width="1.25"
              d="M -261.787842,377.426178 C -225.450943,333.626770 -105.246475,322.433044 -61.447075,358.769928"
              class="id_Dionysia id_Lucy" stroke-opacity="1.0" stroke="#72a7b9"/>
        <path fill="none" stroke-width="0.5"
              d="M -261.787842,377.426178 C -322.435699,351.591980 -374.656128,221.868835 -348.821930,161.220978"
              class="id_Dionysia id_Meanwell" stroke-opacity="1.0"
              stroke="#2c7bb6"/>
        <path fill="none" stroke-width="0.5"
              d="M -261.787842,377.426178 C -318.307648,245.146744 -204.668213,-38.052109 -72.388794,-94.571922"
              class="id_Dionysia id_Millicent" stroke-opacity="1.0"
              stroke="#2c7bb6"/>
        <path fill="none" stroke-width="1.25"
              d="M -261.787842,377.426178 C -233.932373,374.880768 -188.331070,412.845886 -185.785660,440.701355"
              class="id_Dionysia id_Page" stroke-opacity="1.0" stroke="#72a7b9"/>
        <path fill="none" stroke-width="2.0"
              d="M -261.787842,377.426178 C -304.821228,401.686920 -405.762390,373.527985 -430.023132,330.494598"
              class="id_Dionysia id_Rafe" stroke-opacity="1.0" stroke="#b8d3bc"/>
        <path fill="none" stroke-width="0.5"
              d="M -261.787842,377.426178 C -353.147888,329.047516 -417.619934,119.439407 -369.241272,28.079348"
              class="id_Dionysia id_Rashley" stroke-opacity="1.0"
              stroke="#2c7bb6"/>
        <path fill="none" stroke-width="1.25"
              d="M -261.787842,377.426178 C -232.367279,306.250183 -81.472427,243.617065 -10.296438,273.037628"
              class="id_Dionysia id_Theophilus" stroke-opacity="1.0"
              stroke="#72a7b9"/>
        <path fill="none" stroke-width="0.5"
              d="M 147.147522,11.951100 C 183.846390,-45.798759 325.519409,-77.375259 383.269287,-40.676407"
              class="id_Edmund id_Inductor" stroke-opacity="1.0"
              stroke="#2c7bb6"/>
        <path fill="none" stroke-width="0.5"
              d="M 147.147522,11.951100 C 174.792358,123.033783 49.635609,331.125092 -61.447075,358.769928"
              class="id_Edmund id_Lucy" stroke-opacity="1.0" stroke="#2c7bb6"/>
        <path fill="none" stroke-width="0.5"
              d="M 147.147522,11.951100 C 77.807602,140.998962 -219.774063,230.560898 -348.821930,161.220978"
              class="id_Edmund id_Meanwell" stroke-opacity="1.0"
              stroke="#2c7bb6"/>
        <path fill="none" stroke-width="2.0"
              d="M 147.147522,11.951100 C 81.935654,34.553761 -49.786133,-29.360054 -72.388794,-94.571922"
              class="id_Edmund id_Millicent" stroke-opacity="1.0"
              stroke="#b8d3bc"/>
        <path fill="none" stroke-width="5.0"
              d="M 147.147522,11.951100 C 135.198944,32.188385 86.920135,44.621426 66.682854,32.672840"
              class="id_Edmund id_Nathaniel" stroke-opacity="1.0"
              stroke="#d7191c"/>
        <path fill="none" stroke-width="2.75"
              d="M 147.147522,11.951100 C 115.294670,39.010571 26.926193,31.820496 -0.133278,-0.032357"
              class="id_Edmund id_Phillis" stroke-opacity="1.0" stroke="#ffffbf"/>
        <path fill="none" stroke-width="2.75"
              d="M 147.147522,11.951100 C 99.796318,6.501616 36.943748,-72.699409 42.393230,-120.050613"
              class="id_Edmund id_Quicksands" stroke-opacity="1.0"
              stroke="#ffffbf"/>
        <path fill="none" stroke-width="0.5"
              d="M 147.147522,11.951100 C 47.095409,118.454514 -262.737854,128.131470 -369.241272,28.079348"
              class="id_Edmund id_Rashley" stroke-opacity="1.0" stroke="#2c7bb6"/>
        <path fill="none" stroke-width="2.0"
              d="M 147.147522,11.951100 C 80.448730,2.039452 -4.731956,-112.876205 5.179690,-179.574997"
              class="id_Edmund id_Testy" stroke-opacity="1.0" stroke="#b8d3bc"/>
        <path fill="none" stroke-width="1.25"
              d="M 147.147522,11.951100 C 167.876038,95.657196 73.409653,252.309113 -10.296438,273.037628"
              class="id_Edmund id_Theophilus" stroke-opacity="1.0"
              stroke="#72a7b9"/>
        <path fill="none" stroke-width="5.0"
              d="M 147.147522,11.951100 C 127.940834,11.432528 99.908638,-18.155380 100.427208,-37.362080"
              class="id_Edmund id_Vincent" stroke-opacity="1.0" stroke="#d7191c"/>
        <path fill="none" stroke-width="0.5"
              d="M 147.147522,11.951100 C 12.384249,83.177147 -296.599762,-12.128693 -367.825806,-146.891968"
              class="id_Edmund id_Winloss" stroke-opacity="1.0" stroke="#2c7bb6"/>
        <path fill="none" stroke-width="0.5"
              d="M -650.117798,132.350021 C -584.084473,77.865036 -403.306915,95.187622 -348.821930,161.220978"
              class="id_Host id_Meanwell" stroke-opacity="1.0" stroke="#2c7bb6"/>
        <path fill="none" stroke-width="0.5"
              d="M -650.117798,132.350021 C -566.469971,127.960007 -434.413147,246.846756 -430.023132,330.494598"
              class="id_Host id_Rafe" stroke-opacity="1.0" stroke="#2c7bb6"/>
        <path fill="none" stroke-width="0.5"
              d="M -650.117798,132.350021 C -614.796631,55.320580 -446.270691,-7.241825 -369.241272,28.079348"
              class="id_Host id_Rashley" stroke-opacity="1.0" stroke="#2c7bb6"/>
        <path fill="none" stroke-width="0.5"
              d="M -650.117798,132.350021 C -649.507813,20.043221 -480.132629,-147.501953 -367.825806,-146.891968"
              class="id_Host id_Winloss" stroke-opacity="1.0" stroke="#2c7bb6"/>
        <path fill="none" stroke-width="0.5"
              d="M 383.269287,-40.676407 C 334.621857,37.310730 144.669983,81.320282 66.682854,32.672840"
              class="id_Inductor id_Nathaniel" stroke-opacity="1.0"
              stroke="#2c7bb6"/>
        <path fill="none" stroke-width="0.5"
              d="M 383.269287,-40.676407 C 314.717590,44.132915 84.676041,68.519348 -0.133278,-0.032357"
              class="id_Inductor id_Phillis" stroke-opacity="1.0"
              stroke="#2c7bb6"/>
        <path fill="none" stroke-width="0.5"
              d="M 383.269287,-40.676407 C 299.219208,11.623970 94.693611,-36.000557 42.393230,-120.050613"
              class="id_Inductor id_Quicksands" stroke-opacity="1.0"
              stroke="#2c7bb6"/>
        <path fill="none" stroke-width="0.5"
              d="M 383.269287,-40.676407 C 279.871643,7.161789 53.017887,-76.177353 5.179690,-179.574997"
              class="id_Inductor id_Testy" stroke-opacity="1.0" stroke="#2c7bb6"/>
        <path fill="none" stroke-width="0.5"
              d="M 383.269287,-40.676407 C 327.363739,16.554874 157.658493,18.543472 100.427208,-37.362080"
              class="id_Inductor id_Vincent" stroke-opacity="1.0"
              stroke="#2c7bb6"/>
        <path fill="none" stroke-width="0.5"
              d="M -61.447075,358.769928 C -158.431839,376.735107 -330.856750,258.205750 -348.821930,161.220978"
              class="id_Lucy id_Meanwell" stroke-opacity="1.0" stroke="#2c7bb6"/>
        <path fill="none" stroke-width="0.5"
              d="M -61.447075,358.769928 C -154.303787,270.289917 -160.868820,-1.715205 -72.388794,-94.571922"
              class="id_Lucy id_Millicent" stroke-opacity="1.0" stroke="#2c7bb6"/>
        <path fill="none" stroke-width="1.25"
              d="M -61.447075,358.769928 C -101.040504,267.924530 -24.162544,72.266273 66.682854,32.672840"
              class="id_Lucy id_Nathaniel" stroke-opacity="1.0" stroke="#72a7b9"/>
        <path fill="none" stroke-width="1.25"
              d="M -61.447075,358.769928 C -69.928505,400.023926 -144.531647,449.182770 -185.785660,440.701355"
              class="id_Lucy id_Page" stroke-opacity="1.0" stroke="#72a7b9"/>
        <path fill="none" stroke-width="0.5"
              d="M -61.447075,358.769928 C -120.944778,274.746704 -84.156494,59.465343 -0.133278,-0.032357"
              class="id_Lucy id_Phillis" stroke-opacity="1.0" stroke="#2c7bb6"/>
        <path fill="none" stroke-width="0.5"
              d="M -61.447075,358.769928 C -189.144043,354.190643 -373.820557,155.776306 -369.241272,28.079348"
              class="id_Lucy id_Rashley" stroke-opacity="1.0" stroke="#2c7bb6"/>
        <path fill="none" stroke-width="2.75"
              d="M -61.447075,358.769928 C -68.363411,331.393341 -37.673027,279.953949 -10.296438,273.037628"
              class="id_Lucy id_Theophilus" stroke-opacity="1.0"
              stroke="#ffffbf"/>
        <path fill="none" stroke-width="0.5"
              d="M -61.447075,358.769928 C -108.298630,247.168655 -11.174057,9.489471 100.427208,-37.362080"
              class="id_Lucy id_Vincent" stroke-opacity="1.0" stroke="#2c7bb6"/>
        <path fill="none" stroke-width="0.5"
              d="M 144.093506,-443.388855 C 170.560425,-330.329010 40.671055,-121.038849 -72.388794,-94.571922"
              class="id_Madge id_Millicent" stroke-opacity="1.0"
              stroke="#2c7bb6"/>
        <path fill="none" stroke-width="0.5"
              d="M 144.093506,-443.388855 C 203.919449,-325.872192 117.383385,-59.858299 -0.133278,-0.032357"
              class="id_Madge id_Phillis" stroke-opacity="1.0" stroke="#2c7bb6"/>
        <path fill="none" stroke-width="0.5"
              d="M 144.093506,-443.388855 C 188.421112,-358.381134 127.400940,-164.378204 42.393230,-120.050613"
              class="id_Madge id_Quicksands" stroke-opacity="1.0"
              stroke="#2c7bb6"/>
        <path fill="none" stroke-width="1.25"
              d="M -348.821930,161.220978 C -344.693909,54.775768 -178.834000,-98.699966 -72.388794,-94.571922"
              class="id_Meanwell id_Millicent" stroke-opacity="1.0"
              stroke="#72a7b9"/>
        <path fill="none" stroke-width="0.5"
              d="M -348.821930,161.220978 C -291.430603,52.410393 -42.127731,-24.718491 66.682854,32.672840"
              class="id_Meanwell id_Nathaniel" stroke-opacity="1.0"
              stroke="#2c7bb6"/>
        <path fill="none" stroke-width="0.5"
              d="M -348.821930,161.220978 C -260.318573,184.509796 -162.496841,352.197998 -185.785660,440.701355"
              class="id_Meanwell id_Page" stroke-opacity="1.0" stroke="#2c7bb6"/>
        <path fill="none" stroke-width="0.5"
              d="M -348.821930,161.220978 C -311.334869,59.232574 -102.121674,-37.519421 -0.133278,-0.032357"
              class="id_Meanwell id_Phillis" stroke-opacity="1.0"
              stroke="#2c7bb6"/>
        <path fill="none" stroke-width="0.5"
              d="M -348.821930,161.220978 C -326.833221,26.723618 -92.104126,-142.039322 42.393230,-120.050613"
              class="id_Meanwell id_Quicksands" stroke-opacity="1.0"
              stroke="#2c7bb6"/>
        <path fill="none" stroke-width="0.5"
              d="M -348.821930,161.220978 C -331.207428,211.315933 -379.928162,312.880096 -430.023132,330.494598"
              class="id_Meanwell id_Rafe" stroke-opacity="1.0" stroke="#2c7bb6"/>
        <path fill="none" stroke-width="2.0"
              d="M -348.821930,161.220978 C -379.534119,138.676514 -391.785736,58.791542 -369.241272,28.079348"
              class="id_Meanwell id_Rashley" stroke-opacity="1.0"
              stroke="#b8d3bc"/>
        <path fill="none" stroke-width="0.5"
              d="M -348.821930,161.220978 C -346.180786,22.261459 -133.779831,-182.216125 5.179690,-179.574997"
              class="id_Meanwell id_Testy" stroke-opacity="1.0" stroke="#2c7bb6"/>
        <path fill="none" stroke-width="0.5"
              d="M -348.821930,161.220978 C -258.753479,115.879211 -55.638203,182.969208 -10.296438,273.037628"
              class="id_Meanwell id_Theophilus" stroke-opacity="1.0"
              stroke="#2c7bb6"/>
        <path fill="none" stroke-width="0.5"
              d="M -348.821930,161.220978 C -298.688721,31.654533 -29.139233,-87.495300 100.427208,-37.362080"
              class="id_Meanwell id_Vincent" stroke-opacity="1.0"
              stroke="#2c7bb6"/>
        <path fill="none" stroke-width="1.25"
              d="M -348.821930,161.220978 C -414.245300,103.399162 -425.647614,-81.468605 -367.825806,-146.891968"
              class="id_Meanwell id_Winloss" stroke-opacity="1.0"
              stroke="#72a7b9"/>
        <path fill="none" stroke-width="0.5"
              d="M -4.269221,-466.768799 C 56.546234,-378.705536 15.674492,-155.387375 -72.388794,-94.571922"
              class="id_Mercury id_Millicent" stroke-opacity="1.0"
              stroke="#2c7bb6"/>
        <path fill="none" stroke-width="0.5"
              d="M -4.269221,-466.768799 C 74.406914,-406.757660 102.404381,-198.726746 42.393230,-120.050613"
              class="id_Mercury id_Quicksands" stroke-opacity="1.0"
              stroke="#2c7bb6"/>
        <path fill="none" stroke-width="0.5"
              d="M -4.269221,-466.768799 C 55.059319,-411.219818 60.728668,-238.903549 5.179690,-179.574997"
              class="id_Mercury id_Testy" stroke-opacity="1.0" stroke="#2c7bb6"/>
        <path fill="none" stroke-width="2.0"
              d="M -72.388794,-94.571922 C -19.125509,-96.937302 64.317474,-20.590445 66.682854,32.672840"
              class="id_Millicent id_Nathaniel" stroke-opacity="1.0"
              stroke="#b8d3bc"/>
        <path fill="none" stroke-width="0.5"
              d="M -72.388794,-94.571922 C 11.986488,35.162109 -56.051636,356.326080 -185.785660,440.701355"
              class="id_Millicent id_Page" stroke-opacity="1.0" stroke="#2c7bb6"/>
        <path fill="none" stroke-width="2.0"
              d="M -72.388794,-94.571922 C -39.029778,-90.115112 4.323532,-33.391373 -0.133278,-0.032357"
              class="id_Millicent id_Phillis" stroke-opacity="1.0"
              stroke="#b8d3bc"/>
        <path fill="none" stroke-width="4.25"
              d="M -72.388794,-94.571922 C -54.528126,-122.624069 14.341086,-137.911285 42.393230,-120.050613"
              class="id_Millicent id_Quicksands" stroke-opacity="1.0"
              stroke="#e46552"/>
        <path fill="none" stroke-width="1.25"
              d="M -72.388794,-94.571922 C -107.229034,-10.671177 -285.340546,62.919586 -369.241272,28.079348"
              class="id_Millicent id_Rashley" stroke-opacity="1.0"
              stroke="#72a7b9"/>
        <path fill="none" stroke-width="2.75"
              d="M -72.388794,-94.571922 C -73.875710,-127.086235 -27.334623,-178.088089 5.179690,-179.574997"
              class="id_Millicent id_Testy" stroke-opacity="1.0"
              stroke="#ffffbf"/>
        <path fill="none" stroke-width="0.5"
              d="M -72.388794,-94.571922 C 13.551590,-33.468483 50.807003,187.097244 -10.296438,273.037628"
              class="id_Millicent id_Theophilus" stroke-opacity="1.0"
              stroke="#2c7bb6"/>
        <path fill="none" stroke-width="2.0"
              d="M -72.388794,-94.571922 C -26.383623,-117.693153 77.305977,-83.367249 100.427208,-37.362080"
              class="id_Millicent id_Vincent" stroke-opacity="1.0"
              stroke="#b8d3bc"/>
        <path fill="none" stroke-width="0.5"
              d="M -72.388794,-94.571922 C -141.940201,-45.948532 -319.202423,-77.340561 -367.825806,-146.891968"
              class="id_Millicent id_Winloss" stroke-opacity="1.0"
              stroke="#2c7bb6"/>
        <path fill="none" stroke-width="3.5"
              d="M 66.682854,32.672840 C 46.778587,39.495029 6.688910,19.871910 -0.133278,-0.032357"
              class="id_Nathaniel id_Phillis" stroke-opacity="1.0"
              stroke="#f1b288"/>
        <path fill="none" stroke-width="2.75"
              d="M 66.682854,32.672840 C 31.280237,6.986074 16.706465,-84.647995 42.393230,-120.050613"
              class="id_Nathaniel id_Quicksands" stroke-opacity="1.0"
              stroke="#ffffbf"/>
        <path fill="none" stroke-width="0.5"
              d="M 66.682854,32.672840 C -21.420675,118.938972 -282.975159,116.182877 -369.241272,28.079348"
              class="id_Nathaniel id_Rashley" stroke-opacity="1.0"
              stroke="#2c7bb6"/>
        <path fill="none" stroke-width="2.0"
              d="M 66.682854,32.672840 C 11.932655,2.523906 -24.969244,-124.824799 5.179690,-179.574997"
              class="id_Nathaniel id_Testy" stroke-opacity="1.0"
              stroke="#b8d3bc"/>
        <path fill="none" stroke-width="2.0"
              d="M 66.682854,32.672840 C 99.359955,96.141655 53.172379,240.360535 -10.296438,273.037628"
              class="id_Nathaniel id_Theophilus" stroke-opacity="1.0"
              stroke="#b8d3bc"/>
        <path fill="none" stroke-width="5.0"
              d="M 66.682854,32.672840 C 59.424740,11.916985 79.671356,-30.103966 100.427208,-37.362080"
              class="id_Nathaniel id_Vincent" stroke-opacity="1.0"
              stroke="#d7191c"/>
        <path fill="none" stroke-width="0.5"
              d="M 66.682854,32.672840 C -56.131840,83.661613 -316.837036,-24.077271 -367.825806,-146.891968"
              class="id_Nathaniel id_Winloss" stroke-opacity="1.0"
              stroke="#2c7bb6"/>
        <path fill="none" stroke-width="0.5"
              d="M -185.785660,440.701355 C -305.001190,394.868073 -415.074554,147.294876 -369.241272,28.079348"
              class="id_Page id_Rashley" stroke-opacity="1.0" stroke="#2c7bb6"/>
        <path fill="none" stroke-width="1.25"
              d="M -185.785660,440.701355 C -184.220551,372.070770 -78.927032,271.472534 -10.296438,273.037628"
              class="id_Page id_Theophilus" stroke-opacity="1.0"
              stroke="#72a7b9"/>
        <path fill="none" stroke-width="2.75"
              d="M -0.133278,-0.032357 C -15.631629,-32.541309 9.884275,-104.552261 42.393230,-120.050613"
              class="id_Phillis id_Quicksands" stroke-opacity="1.0"
              stroke="#ffffbf"/>
        <path fill="none" stroke-width="0.5"
              d="M -0.133278,-0.032357 C -68.332542,79.411583 -289.797333,96.278610 -369.241272,28.079348"
              class="id_Phillis id_Rashley" stroke-opacity="1.0"
              stroke="#2c7bb6"/>
        <path fill="none" stroke-width="2.0"
              d="M -0.133278,-0.032357 C -34.979210,-37.003479 -31.791431,-144.729065 5.179690,-179.574997"
              class="id_Phillis id_Testy" stroke-opacity="1.0" stroke="#b8d3bc"/>
        <path fill="none" stroke-width="1.25"
              d="M -0.133278,-0.032357 C 52.448086,56.614269 46.350189,220.456268 -10.296438,273.037628"
              class="id_Phillis id_Theophilus" stroke-opacity="1.0"
              stroke="#72a7b9"/>
        <path fill="none" stroke-width="2.75"
              d="M -0.133278,-0.032357 C 12.512876,-27.610401 72.849167,-50.008232 100.427208,-37.362080"
              class="id_Phillis id_Vincent" stroke-opacity="1.0"
              stroke="#ffffbf"/>
        <path fill="none" stroke-width="0.5"
              d="M -0.133278,-0.032357 C -103.043701,44.134232 -323.659210,-43.981544 -367.825806,-146.891968"
              class="id_Phillis id_Winloss" stroke-opacity="1.0"
              stroke="#2c7bb6"/>
        <path fill="none" stroke-width="0.5"
              d="M 42.393230,-120.050613 C -10.307673,-8.097725 -257.288361,80.780251 -369.241272,28.079348"
              class="id_Quicksands id_Rashley" stroke-opacity="1.0"
              stroke="#2c7bb6"/>
        <path fill="none" stroke-width="3.5"
              d="M 42.393230,-120.050613 C 23.045647,-124.512779 0.717522,-160.227417 5.179690,-179.574997"
              class="id_Quicksands id_Testy" stroke-opacity="1.0"
              stroke="#f1b288"/>
        <path fill="none" stroke-width="2.75"
              d="M 42.393230,-120.050613 C 70.537735,-115.119705 105.358124,-65.506584 100.427208,-37.362080"
              class="id_Quicksands id_Vincent" stroke-opacity="1.0"
              stroke="#ffffbf"/>
        <path fill="none" stroke-width="0.5"
              d="M 42.393230,-120.050613 C -45.018848,-43.375076 -291.150269,-59.479889 -367.825806,-146.891968"
              class="id_Quicksands id_Winloss" stroke-opacity="1.0"
              stroke="#2c7bb6"/>
        <path fill="none" stroke-width="0.5"
              d="M -430.023132,330.494598 C -478.349823,257.855164 -441.880707,76.406029 -369.241272,28.079348"
              class="id_Rafe id_Rashley" stroke-opacity="1.0" stroke="#2c7bb6"/>
        <path fill="none" stroke-width="0.5"
              d="M -430.023132,330.494598 C -513.060974,222.577820 -475.742554,-63.854126 -367.825806,-146.891968"
              class="id_Rafe id_Winloss" stroke-opacity="1.0" stroke="#2c7bb6"/>
        <path fill="none" stroke-width="0.5"
              d="M -369.241272,28.079348 C -335.887939,-88.335716 -111.235374,-212.928314 5.179690,-179.574997"
              class="id_Rashley id_Testy" stroke-opacity="1.0" stroke="#2c7bb6"/>
        <path fill="none" stroke-width="0.5"
              d="M -369.241272,28.079348 C -248.460632,5.282043 -33.093742,152.256989 -10.296438,273.037628"
              class="id_Rashley id_Theophilus" stroke-opacity="1.0"
              stroke="#2c7bb6"/>
        <path fill="none" stroke-width="0.5"
              d="M -369.241272,28.079348 C -288.395844,-78.942642 -6.594778,-118.207497 100.427208,-37.362080"
              class="id_Rashley id_Vincent" stroke-opacity="1.0"
              stroke="#2c7bb6"/>
        <path fill="none" stroke-width="1.25"
              d="M -369.241272,28.079348 C -403.952454,-7.198009 -403.103149,-112.180801 -367.825806,-146.891968"
              class="id_Rashley id_Winloss" stroke-opacity="1.0"
              stroke="#72a7b9"/>
        <path fill="none" stroke-width="2.0"
              d="M 5.179690,-179.574997 C 52.671780,-170.181915 109.820282,-84.854172 100.427208,-37.362080"
              class="id_Testy id_Vincent" stroke-opacity="1.0" stroke="#b8d3bc"/>
        <path fill="none" stroke-width="0.5"
              d="M 5.179690,-179.574997 C -62.884811,-98.437286 -286.688110,-78.827469 -367.825806,-146.891968"
              class="id_Testy id_Winloss" stroke-opacity="1.0" stroke="#2c7bb6"/>
        <path fill="none" stroke-width="1.25"
              d="M -10.296438,273.037628 C -50.231651,188.812958 16.202534,2.573135 100.427208,-37.362080"
              class="id_Theophilus id_Vincent" stroke-opacity="1.0"
              stroke="#72a7b9"/>
        <path fill="none" stroke-width="0.5"
              d="M 100.427208,-37.362080 C -15.129368,34.382538 -296.081177,-31.335396 -367.825806,-146.891968"
              class="id_Vincent id_Winloss" stroke-opacity="1.0"
              stroke="#2c7bb6"/>
    </g>
    <g id="nodes">
        <circle fill-opacity="1.0" fill="#C0C0C0" r="10.212766" cx="472.4885"
                class="id_A_Drinker_within" cy="-269.05087" stroke="#000000"
                stroke-opacity="1.0" stroke-width="1.0"/>
        <circle fill-opacity="1.0" fill="#C0C0C0" r="10.212766" cx="511.5139"
                class="id_Boy" cy="-206.8166" stroke="#000000"
                stroke-opacity="1.0" stroke-width="1.0"/>
        <circle fill-opacity="1.0" fill="#9a96e5" r="16.595745" cx="119.901695"
                class="id_Buzzard" cy="-195.46863" stroke="#000000"
                stroke-opacity="1.0" stroke-width="1.0"/>
        <circle fill-opacity="1.0" fill="#f97743" r="19.148937" cx="147.14752"
                class="id_Edmund" cy="11.9511" stroke="#000000"
                stroke-opacity="1.0" stroke-width="1.0"/>
        <circle fill-opacity="1.0" fill="#f97743" r="20.0" cx="66.68285"
                class="id_Nathaniel" cy="32.67284" stroke="#000000"
                stroke-opacity="1.0" stroke-width="1.0"/>
        <circle fill-opacity="1.0" fill="#f97743" r="19.148937" cx="100.42721"
                class="id_Vincent" cy="-37.36208" stroke="#000000"
                stroke-opacity="1.0" stroke-width="1.0"/>
        <circle fill-opacity="1.0" fill="#9a96e5" r="16.595745" cx="75.42509"
                class="id_Arnold" cy="117.35264" stroke="#000000"
                stroke-opacity="1.0" stroke-width="1.0"/>
        <circle fill-opacity="1.0" fill="#f97743" r="15.531915" cx="-86.679085"
                class="id_Arthur" cy="195.38197" stroke="#000000"
                stroke-opacity="1.0" stroke-width="1.0"/>
        <circle fill-opacity="1.0" fill="#C0C0C0" r="10.851064" cx="383.2693"
                class="id_Inductor" cy="-40.676407" stroke="#000000"
                stroke-opacity="1.0" stroke-width="1.0"/>
        <circle fill-opacity="1.0" fill="#f97743" r="13.404255" cx="-61.447075"
                class="id_Lucy" cy="358.76993" stroke="#000000"
                stroke-opacity="1.0" stroke-width="1.0"/>
        <circle fill-opacity="1.0" fill="#f97743" r="13.829787" cx="-348.82193"
                class="id_Meanwell" cy="161.22098" stroke="#000000"
                stroke-opacity="1.0" stroke-width="1.0"/>
        <circle fill-opacity="1.0" fill="#f97743" r="17.659575" cx="-72.388794"
                class="id_Millicent" cy="-94.57192" stroke="#000000"
                stroke-opacity="1.0" stroke-width="1.0"/>
        <circle fill-opacity="1.0" fill="#f97743" r="17.659575" cx="-0.13327824"
                class="id_Phillis" cy="-0.03235693" stroke="#000000"
                stroke-opacity="1.0" stroke-width="1.0"/>
        <circle fill-opacity="1.0" fill="#28b36a" r="17.872341" cx="42.39323"
                class="id_Quicksands" cy="-120.05061" stroke="#000000"
                stroke-opacity="1.0" stroke-width="1.0"/>
        <circle fill-opacity="1.0" fill="#f97743" r="13.829787" cx="-369.24127"
                class="id_Rashley" cy="28.079348" stroke="#000000"
                stroke-opacity="1.0" stroke-width="1.0"/>
        <circle fill-opacity="1.0" fill="#f97743" r="16.170212" cx="5.1796904"
                class="id_Testy" cy="-179.575" stroke="#000000"
                stroke-opacity="1.0" stroke-width="1.0"/>
        <circle fill-opacity="1.0" fill="#f97743" r="14.680851" cx="-10.296438"
                class="id_Theophilus" cy="273.03763" stroke="#000000"
                stroke-opacity="1.0" stroke-width="1.0"/>
        <circle fill-opacity="1.0" fill="#f97743" r="12.3404255" cx="-367.8258"
                class="id_Winloss" cy="-146.89197" stroke="#000000"
                stroke-opacity="1.0" stroke-width="1.0"/>
        <circle fill-opacity="1.0" fill="#f97743" r="12.3404255" cx="-261.78784"
                class="id_Dionysia" cy="377.42618" stroke="#000000"
                stroke-opacity="1.0" stroke-width="1.0"/>
        <circle fill-opacity="1.0" fill="#9a96e5" r="11.276596" cx="-185.78566"
                class="id_Page" cy="440.70135" stroke="#000000"
                stroke-opacity="1.0" stroke-width="1.0"/>
        <circle fill-opacity="1.0" fill="#9a96e5" r="11.063829" cx="-430.02313"
                class="id_Rafe" cy="330.4946" stroke="#000000"
                stroke-opacity="1.0" stroke-width="1.0"/>
        <circle fill-opacity="1.0" fill="#9a96e5" r="10.0" cx="144.0935"
                class="id_Madge" cy="-443.38885" stroke="#000000"
                stroke-opacity="1.0" stroke-width="1.0"/>
        <circle fill-opacity="1.0" fill="#C0C0C0" r="10.0" cx="-4.2692213"
                class="id_Mercury" cy="-466.7688" stroke="#000000"
                stroke-opacity="1.0" stroke-width="1.0"/>
        <circle fill-opacity="1.0" fill="#9a96e5" r="10.0" cx="-650.1178"
                class="id_Host" cy="132.35002" stroke="#000000"
                stroke-opacity="1.0" stroke-width="1.0"/>
    </g>
    <g id="node-labels">
        <text font-size="16" x="472.4885" y="-265.69885" fill="#000000"
              style="text-anchor: middle; dominant-baseline: central;"
              font-family="Helvetica Neue" class="id_A_Drinker_within">
            A_Drinker_within
        </text>
        <text font-size="16" x="511.5139" y="-203.1326" fill="#000000"
              style="text-anchor: middle; dominant-baseline: central;"
              font-family="Helvetica Neue" class="id_Boy">
            Boy
        </text>
        <text font-size="27" x="119.901695" y="-190.57487" fill="#000000"
              style="text-anchor: middle; dominant-baseline: central;"
              font-family="Helvetica Neue" class="id_Buzzard">
            Buzzard
        </text>
        <text font-size="31" x="147.14752" y="17.56985" fill="#000000"
              style="text-anchor: middle; dominant-baseline: central;"
              font-family="Helvetica Neue" class="id_Edmund">
            Edmund
        </text>
        <text font-size="32" x="66.68285" y="38.47284" fill="#000000"
              style="text-anchor: middle; dominant-baseline: central;"
              font-family="Helvetica Neue" class="id_Nathaniel">
            Nathaniel
        </text>
        <text font-size="31" x="100.42721" y="-31.74333" fill="#000000"
              style="text-anchor: middle; dominant-baseline: central;"
              font-family="Helvetica Neue" class="id_Vincent">
            Vincent
        </text>
        <text font-size="27" x="75.42509" y="122.24638" fill="#000000"
              style="text-anchor: middle; dominant-baseline: central;"
              font-family="Helvetica Neue" class="id_Arnold">
            Arnold
        </text>
        <text font-size="25" x="-86.679085" y="199.91322" fill="#000000"
              style="text-anchor: middle; dominant-baseline: central;"
              font-family="Helvetica Neue" class="id_Arthur">
            Arthur
        </text>
        <text font-size="17" x="383.2693" y="-37.595158" fill="#000000"
              style="text-anchor: middle; dominant-baseline: central;"
              font-family="Helvetica Neue" class="id_Inductor">
            Inductor
        </text>
        <text font-size="21" x="-61.447075" y="363.60516" fill="#000000"
              style="text-anchor: middle; dominant-baseline: central;"
              font-family="Helvetica Neue" class="id_Lucy">
            Lucy
        </text>
        <text font-size="22" x="-348.82193" y="165.20848" fill="#000000"
              style="text-anchor: middle; dominant-baseline: central;"
              font-family="Helvetica Neue" class="id_Meanwell">
            Meanwell
        </text>
        <text font-size="28" x="-72.388794" y="-89.496925" fill="#000000"
              style="text-anchor: middle; dominant-baseline: central;"
              font-family="Helvetica Neue" class="id_Millicent">
            Millicent
        </text>
        <text font-size="28" x="-0.13327824" y="5.042643" fill="#000000"
              style="text-anchor: middle; dominant-baseline: central;"
              font-family="Helvetica Neue" class="id_Phillis">
            Phillis
        </text>
        <text font-size="29" x="42.39323" y="-114.30861" fill="#000000"
              style="text-anchor: middle; dominant-baseline: central;"
              font-family="Helvetica Neue" class="id_Quicksands">
            Quicksands
        </text>
        <text font-size="22" x="-369.24127" y="33.144848" fill="#000000"
              style="text-anchor: middle; dominant-baseline: central;"
              font-family="Helvetica Neue" class="id_Rashley">
            Rashley
        </text>
        <text font-size="26" x="5.1796904" y="-173.5885" fill="#000000"
              style="text-anchor: middle; dominant-baseline: central;"
              font-family="Helvetica Neue" class="id_Testy">
            Testy
        </text>
        <text font-size="23" x="-10.296438" y="278.27588" fill="#000000"
              style="text-anchor: middle; dominant-baseline: central;"
              font-family="Helvetica Neue" class="id_Theophilus">
            Theophilus
        </text>
        <text font-size="20" x="-367.8258" y="-143.26697" fill="#000000"
              style="text-anchor: middle; dominant-baseline: central;"
              font-family="Helvetica Neue" class="id_Winloss">
            Winloss
        </text>
        <text font-size="20" x="-261.78784" y="382.0312" fill="#000000"
              style="text-anchor: middle; dominant-baseline: central;"
              font-family="Helvetica Neue" class="id_Dionysia">
            Dionysia
        </text>
        <text font-size="18" x="-185.78566" y="444.85486" fill="#000000"
              style="text-anchor: middle; dominant-baseline: central;"
              font-family="Helvetica Neue" class="id_Page">
            Page
        </text>
        <text font-size="18" x="-430.02313" y="333.7931" fill="#000000"
              style="text-anchor: middle; dominant-baseline: central;"
              font-family="Helvetica Neue" class="id_Rafe">
            Rafe
        </text>
        <text font-size="16" x="144.0935" y="-439.69684" fill="#000000"
              style="text-anchor: middle; dominant-baseline: central;"
              font-family="Helvetica Neue" class="id_Madge">
            Madge
        </text>
        <text font-size="16" x="-4.2692213" y="-463.08478" fill="#000000"
              style="text-anchor: middle; dominant-baseline: central;"
              font-family="Helvetica Neue" class="id_Mercury">
            Mercury
        </text>
        <text font-size="16" x="-650.1178" y="135.25002" fill="#000000"
              style="text-anchor: middle; dominant-baseline: central;"
              font-family="Helvetica Neue" class="id_Host">
            Host
        </text>
    </g>
</svg>
